<?xml version="1.0" standalone="no"?>
<!DOCTYPE svg PUBLIC "-//W3C//DTD SVG 20010904//EN"
 "http://www.w3.org/TR/2001/REC-SVG-20010904/DTD/svg10.dtd">
<svg version="1.0" xmlns="http://www.w3.org/2000/svg"
 width="904.000000pt" height="162.000000pt" viewBox="0 0 904.000000 162.000000"
 preserveAspectRatio="xMidYMid meet">

<g transform="translate(0.000000,162.000000) scale(0.100000,-0.100000)"
fill="#000000" stroke="none">
<path d="M1332 1542 c-35 -39 -124 -182 -599 -970 -293 -486 -306 -512 -233
-482 40 16 151 184 498 745 314 509 375 605 384 605 13 0 86 -106 190 -273
206 -332 266 -411 321 -423 66 -14 80 -40 -361 676 -58 93 -118 160 -145 160
-11 0 -36 -17 -55 -38z"/>
<path d="M60 820 l0 -740 50 0 50 0 0 740 0 740 -50 0 -50 0 0 -740z"/>
<path d="M5133 1333 c-5 -16 -8 -291 -8 -613 0 -322 3 -597 8 -612 10 -36 24
-36 34 0 5 15 8 290 8 612 0 322 -3 597 -8 613 -4 15 -12 27 -17 27 -5 0 -13
-12 -17 -27z"/>
<path d="M3478 1291 c-100 -32 -179 -97 -214 -178 -20 -46 -23 -154 -5 -205
23 -68 126 -161 301 -272 175 -111 229 -178 230 -281 0 -64 -37 -144 -81 -178
-80 -60 -245 -72 -381 -27 -55 19 -70 20 -83 10 -38 -32 -5 -56 113 -85 102
-24 257 -18 329 14 62 28 135 101 154 157 7 21 14 75 14 119 0 69 -4 86 -27
125 -37 64 -102 121 -253 224 -223 153 -238 168 -251 263 -9 74 16 152 63 193
82 72 176 92 314 66 89 -17 119 -14 119 10 0 31 -117 64 -223 63 -34 0 -87 -8
-119 -18z"/>
<path d="M6960 1260 c-25 -25 -25 -42 -2 -63 38 -35 92 -8 92 45 0 41 -56 52
-90 18z"/>
<path d="M6491 1162 c-5 -10 -13 -61 -17 -114 l-7 -96 -57 -6 c-31 -4 -66 -13
-76 -21 -19 -15 -19 -15 0 -30 10 -8 45 -17 77 -21 56 -6 59 -8 59 -34 0 -138
23 -653 31 -682 12 -47 46 -74 112 -88 64 -15 132 0 140 29 5 22 -29 33 -75
24 -14 -3 -42 0 -61 6 -65 22 -70 49 -75 424 l-4 327 92 0 c93 0 130 10 130
34 0 19 -33 26 -132 26 l-88 0 0 98 c0 53 -3 107 -6 120 -8 27 -30 29 -43 4z"/>
<path d="M4411 948 c-229 -27 -360 -241 -323 -531 20 -165 91 -271 218 -329
43 -20 65 -23 174 -23 114 0 130 2 181 26 126 59 191 166 211 342 14 129 3
219 -41 312 -76 163 -210 228 -420 203z m201 -74 c146 -49 231 -244 199 -455
-30 -192 -155 -304 -339 -302 -186 3 -318 148 -330 365 -3 69 0 100 17 156 32
106 118 209 199 238 52 18 198 18 254 -2z"/>
<path d="M7611 949 c-146 -18 -266 -120 -305 -260 -35 -124 -28 -298 15 -414
31 -83 102 -152 194 -189 58 -24 85 -29 160 -30 82 0 96 3 163 34 94 43 167
120 207 216 26 62 29 81 29 189 1 140 -13 198 -71 292 -80 131 -209 184 -392
162z m211 -76 c100 -45 161 -130 183 -257 30 -179 -12 -337 -113 -427 -57 -49
-127 -73 -219 -72 -171 1 -295 123 -324 317 -15 100 -1 198 41 282 73 149 279
224 432 157z"/>
<path d="M8589 937 c-60 -25 -117 -61 -136 -87 -6 -8 -18 -24 -26 -35 -23 -30
-47 -4 -47 49 0 23 -6 50 -13 60 -12 17 -14 17 -28 0 -12 -14 -14 -83 -14
-420 0 -406 3 -447 34 -410 9 10 17 104 26 290 13 263 15 278 41 336 43 96
128 161 230 175 65 8 119 -6 172 -47 66 -50 73 -81 83 -333 14 -371 19 -425
39 -425 30 0 42 435 16 606 -16 103 -23 119 -74 176 -76 84 -197 110 -303 65z"/>
<path d="M5493 928 c-4 -7 -9 -123 -11 -258 -5 -381 21 -501 121 -567 63 -40
152 -58 224 -44 68 13 104 32 176 92 33 27 63 47 68 43 5 -3 9 -24 9 -47 0
-50 11 -70 33 -62 24 10 29 109 25 485 -3 338 -9 390 -37 356 -9 -10 -17 -102
-26 -293 -15 -300 -25 -357 -73 -415 -35 -43 -49 -54 -97 -80 -57 -31 -174
-31 -232 0 -98 51 -120 134 -129 482 -3 135 -9 260 -13 279 -7 37 -24 50 -38
29z"/>
<path d="M6973 923 c-5 -10 -8 -199 -8 -420 0 -308 3 -405 13 -415 9 -9 15 -9
25 0 14 15 23 701 10 791 -8 56 -27 77 -40 44z"/>
<path d="M2035 449 c-7 -10 66 -140 151 -269 23 -36 56 -73 72 -82 32 -19 67
-23 76 -10 7 12 -162 286 -206 334 -34 38 -79 51 -93 27z"/>
</g>
</svg>
